<svg preserveAspectRatio="none" width="100%" height="100%" overflow="visible" style="display: block;" viewBox="0 0 20 21" fill="none" xmlns="http://www.w3.org/2000/svg">
<path id="icon" fill-rule="evenodd" clip-rule="evenodd" d="M13.3112 19.27C13.2112 19.95 12.5912 20.49 11.8512 20.49H8.15121C7.41121 20.49 6.79121 19.95 6.70121 19.22L6.43121 17.33C6.16121 17.19 5.90121 17.04 5.64121 16.87L3.84121 17.59C3.14121 17.85 2.37121 17.56 2.03121 16.94L0.201211 13.77C-0.148789 13.11 0.00121087 12.33 0.561211 11.89L2.09121 10.7C2.08121 10.55 2.07121 10.4 2.07121 10.24C2.07121 10.09 2.08121 9.93 2.09121 9.78L0.571211 8.59C-0.0187891 8.14 -0.168789 7.33 0.201211 6.71L2.05121 3.52C2.39121 2.9 3.16121 2.62 3.84121 2.89L5.65121 3.62C5.91121 3.45 6.17121 3.3 6.43121 3.16L6.70121 1.25C6.79121 0.55 7.41121 0 8.14121 0H11.8412C12.5812 0 13.2012 0.54 13.2912 1.27L13.5612 3.16C13.8312 3.3 14.0912 3.45 14.3512 3.62L16.1512 2.9C16.8612 2.64 17.6312 2.93 17.9712 3.55L19.8112 6.73C20.1712 7.39 20.0112 8.17 19.4512 8.61L17.9312 9.8C17.9412 9.95 17.9512 10.1 17.9512 10.26C17.9512 10.42 17.9412 10.57 17.9312 10.72L19.4512 11.91C20.0112 12.36 20.1712 13.14 19.8212 13.77L17.9612 16.99C17.6212 17.61 16.8512 17.89 16.1612 17.62L14.3612 16.9C14.1012 17.07 13.8412 17.22 13.5812 17.36L13.3112 19.27ZM8.62121 18.49H11.3812L11.7512 15.94L12.2812 15.72C12.7212 15.54 13.1612 15.28 13.6212 14.94L14.0712 14.6L16.4512 15.56L17.8312 13.16L15.8012 11.58L15.8712 11.02L15.8743 10.9931C15.9032 10.7427 15.9312 10.5007 15.9312 10.24C15.9312 9.97 15.9012 9.71 15.8712 9.46L15.8012 8.9L17.8312 7.32L16.4412 4.92L14.0512 5.88L13.6012 5.53C13.1812 5.21 12.7312 4.95 12.2712 4.76L11.7512 4.54L11.3812 1.99H8.62121L8.25121 4.54L7.72121 4.75C7.28121 4.94 6.84121 5.19 6.38121 5.54L5.93121 5.87L3.55121 4.92L2.16121 7.31L4.19121 8.89L4.12121 9.45C4.09121 9.71 4.06121 9.98 4.06121 10.24C4.06121 10.5 4.08121 10.77 4.12121 11.02L4.19121 11.58L2.16121 13.16L3.54121 15.56L5.93121 14.6L6.38121 14.95C6.81121 15.28 7.24121 15.53 7.71121 15.72L8.24121 15.94L8.62121 18.49ZM13.5012 10.24C13.5012 12.173 11.9342 13.74 10.0012 13.74C8.06821 13.74 6.50121 12.173 6.50121 10.24C6.50121 8.307 8.06821 6.74 10.0012 6.74C11.9342 6.74 13.5012 8.307 13.5012 10.24Z" fill="var(--fill-0, #49454F)"/>
</svg>
